<svg xmlns="http://www.w3.org/2000/svg" width="605.31" height="204" viewBox="0 0 605.31 204"><title>DeLM</title><g fill="#2563EB" transform="translate(48.5234 37.7793) scale(0.148439)"><rect x="0" y="0.000000" width="272" height="270.666667" rx="40"/><rect x="0" y="306.666667" width="272" height="270.666667" rx="40"/><rect x="0" y="613.333333" width="272" height="270.666667" rx="40"/><path d="M356 0 C588 0 778 158 820 374 Q828 424 776 424 H604 Q567 424 554 385 C518 293 421 239 343 239 Q296 239 296 192 V60 Q296 0 356 0Z"/><path d="M356 884 C588 884 778 726 820 510 Q828 460 776 460 H604 Q567 460 554 499 C518 591 421 645 343 645 Q296 645 296 692 V824 Q296 884 356 884Z"/></g><path fill="#2563EB" transform="translate(175.414,169) scale(0.08789062,-0.08789062)" d="M1290 563V461H453Q466 335 544.0 272.0Q622 209 762 209Q875 209 993.5 242.5Q1112 276 1237 344V68Q1110 20 983.0 -4.5Q856 -29 729 -29Q425 -29 256.5 125.5Q88 280 88 559Q88 833 253.5 990.0Q419 1147 709 1147Q973 1147 1131.5 988.0Q1290 829 1290 563ZM922 682Q922 784 862.5 846.5Q803 909 707 909Q603 909 538.0 850.5Q473 792 457 682Z"/><path fill="#163B73" transform="translate(291.494,169) scale(0.08789062,-0.08789062)" d="M188 1493H573V291H1249V0H188Z"/><path fill="#163B73" transform="translate(400.191,169) scale(0.08789062,-0.08789062)" d="M188 1493H678L1018 694L1360 1493H1849V0H1485V1092L1141 287H897L553 1092V0H188Z"/></svg>